<?xml version="1.0" standalone="no"?>
<!DOCTYPE svg PUBLIC "-//W3C//DTD SVG 20010904//EN"
 "http://www.w3.org/TR/2001/REC-SVG-20010904/DTD/svg10.dtd">
<svg version="1.0" xmlns="http://www.w3.org/2000/svg"
 width="90.000000pt" height="90.000000pt" viewBox="0 0 90.000000 90.000000"
 preserveAspectRatio="xMidYMid meet">
<metadata>
Created by potrace 1.11, written by Peter Selinger 2001-2013
</metadata>
<g transform="translate(0.000000,90.000000) scale(0.100000,-0.100000)"
fill="#000000" stroke="none">
<path d="M259 740 c-143 -24 -242 -141 -242 -285 0 -117 56 -210 157 -260 50
-24 156 -45 156 -31 0 4 -12 19 -26 34 -14 15 -40 56 -58 92 -28 60 -31 73
-31 165 0 87 3 107 26 155 14 31 40 72 57 92 27 30 33 51 13 47 -3 -1 -27 -5
-52 -9z"/>
<path d="M462 709 c-100 -49 -156 -143 -156 -259 0 -114 59 -206 162 -257 224
-110 478 101 408 339 -37 127 -146 208 -281 208 -60 0 -82 -5 -133 -31z"/>
</g>
</svg>
