<svg id="Layer_1" data-name="Layer 1" xmlns="http://www.w3.org/2000/svg" xmlns:xlink="http://www.w3.org/1999/xlink" viewBox="0 0 173 65"><defs><style>.cls-1{fill:none;}.cls-2{clip-path:url(#clip-path);}.cls-3{clip-path:url(#clip-path-2);}.cls-4{fill:#0d2c6c;}.cls-5{fill:#0077bd;}.cls-6{fill:#00205c;}</style><clipPath id="clip-path"><polyline class="cls-1" points="0 65 172.53 65 172.53 0 0 0 0 65"/></clipPath><clipPath id="clip-path-2"><polyline class="cls-1" points="0 65 172.53 65 172.53 0 0 0 0 65"/></clipPath></defs><g class="cls-2"><g class="cls-3"><path class="cls-4" d="M32.5,61.61a29.11,29.11,0,0,1,0-58.22H140a29.11,29.11,0,0,1,0,58.22H32.5M140.22,0H32.32a32.5,32.5,0,0,0,.18,65H140a32.5,32.5,0,0,0,.19-65"/></g></g><path class="cls-4" d="M114.81,38.56a8.48,8.48,0,0,0,7.58,4c3.33,0,4.5-1.56,4.5-3,0-2.64-3.38-3.29-7.58-4.85S112,30.81,112,26c0-5.41,4.68-8.53,10.05-8.53a11.84,11.84,0,0,1,9.24,3.92l-3.65,4.4a6.49,6.49,0,0,0-5.42-2.34c-2.25,0-3.63,1-3.63,2.47,0,2.51,2.38,2.59,7.27,4.5,5.46,2.08,7.71,4.63,7.71,9,0,5.33-3.55,9.23-11.22,9.23-5.61,0-9.38-2.27-11.51-5.23Z"/><polygon class="cls-4" points="83.09 17.88 89.76 17.88 89.76 31.34 101.41 17.88 109.33 17.88 97.77 31.26 109.68 48.06 101.84 48.06 93.22 35.98 89.76 39.83 89.76 48.06 83.09 48.06 83.09 17.88"/><path class="cls-4" d="M137.65,17.87h12.74a10.2,10.2,0,0,1,10.17,10.22,10.31,10.31,0,0,1-10.17,10.23h-6.07v9.74h-6.67ZM150,32.25a3.86,3.86,0,0,0,3.89-4.16A3.83,3.83,0,0,0,150,23.94h-5.68v8.31Z"/><path class="cls-5" d="M54,11.05A21.36,21.36,0,0,0,43.16,14a21.54,21.54,0,0,1,0,37.27A21.54,21.54,0,1,0,54,11.05"/><path class="cls-4" d="M53.9,32.6A21.54,21.54,0,0,0,43.16,14a21.53,21.53,0,0,0,0,37.27A21.51,21.51,0,0,0,53.9,32.6"/><path class="cls-4" d="M24.84,32.5a29.06,29.06,0,0,1,9.35-21.37c-.6-.05-1.21-.08-1.83-.08a21.55,21.55,0,1,0,0,43.09,19.38,19.38,0,0,0,2-.1A29,29,0,0,1,24.84,32.5"/><path class="cls-6" d="M24.84,32a29.07,29.07,0,0,1,9.35-21.37c-.6-.05-1.21-.08-1.83-.08a21.55,21.55,0,1,0,0,43.09c.68,0,1.35,0,2-.09A29,29,0,0,1,24.84,32"/></svg>