<svg id="Layer_1" data-name="Layer 1" xmlns="http://www.w3.org/2000/svg" viewBox="0 0 110 110"><defs><style>.cls-1{fill:#89181a;}.cls-2{fill:#6d6e70;}</style></defs><path class="cls-1" d="M108.62,82.37a34.29,34.29,0,0,1-6.6-.47,3.94,3.94,0,0,1-1.91-1.19q-.69-.81-1.72-5.08-.63-2.67-1.25-5.41l-7-40.11L88.84,18.85l-.06-.43a4.52,4.52,0,0,1,.47-2.75A1.44,1.44,0,0,1,90.1,15,18.66,18.66,0,0,1,94,14.75l-.26-1.45H83.43l-1.66,4.93L67.5,56.39C70,60.14,71.43,64,71,68L83.68,40.11l6.57,40.78a2.14,2.14,0,0,1-1.33,1,31.23,31.23,0,0,1-6.42.47l.38,1.81H109Z"/><path class="cls-1" d="M40.74,13.26l0,.11h0l-.25,1.38a18.66,18.66,0,0,1,3.89.28,1.44,1.44,0,0,1,.85.64,5.67,5.67,0,0,1,0,2.35L43.66,32.78C50,39.22,59.13,46,65.09,53.18L49.72,13.26Z"/><path class="cls-2" d="M1.12,62.18V61.8l1.21,0,1.11,0c.35.79.67,1.5,1,2.1l2.27,4.67,2.05-4.28c.56-1.17.93-2,1.12-2.49l1.07,0,1.3,0v.38a5,5,0,0,0-.87.06.43.43,0,0,0-.21.14,1.47,1.47,0,0,0-.09.58q0,.12,0,1.71v2.77c0,.54,0,1.07,0,1.59a2.39,2.39,0,0,0,.09.68.4.4,0,0,0,.22.15,3.85,3.85,0,0,0,.87.07v.38c-.81,0-1.38,0-1.71,0s-.86,0-1.77,0v-.38a3.93,3.93,0,0,0,.87-.07.37.37,0,0,0,.21-.14,1.43,1.43,0,0,0,.09-.58c0-.08,0-.65,0-1.7V63L7.87,67.37c-.32.67-.58,1.22-.76,1.63s-.33.77-.6,1.42H6.28a3.62,3.62,0,0,0-.15-.36l-.41-.87L2.86,63.24v4.2c0,.54,0,1.07,0,1.59a2.05,2.05,0,0,0,.09.68.4.4,0,0,0,.22.15,3.78,3.78,0,0,0,.87.07v.38l-1.45,0-1.49,0v-.38A3.74,3.74,0,0,0,2,69.86a.37.37,0,0,0,.22-.14,1.43,1.43,0,0,0,.09-.58c0-.08,0-.65,0-1.7V64.67c0-.55,0-1.08,0-1.6a1.92,1.92,0,0,0-.09-.67A.47.47,0,0,0,2,62.24,4.93,4.93,0,0,0,1.12,62.18Z"/><path class="cls-2" d="M12.93,70.31v-.38a2.34,2.34,0,0,0,.82-.09.2.2,0,0,0,.12-.12,2.18,2.18,0,0,0,.09-.63c0-.52,0-1,0-1.36V64.67c0-.55,0-1.08,0-1.6a2.22,2.22,0,0,0-.09-.67.47.47,0,0,0-.22-.16,5,5,0,0,0-.87-.06V61.8l1.71,0,1.81,0,1.89,0a9.9,9.9,0,0,1,1.12.07,4.86,4.86,0,0,0-.14.59s0,.45-.1,1.25h-.38a6.48,6.48,0,0,0-.08-1.12,2.71,2.71,0,0,0-.72-.18,10.2,10.2,0,0,0-1.35-.09l-.64,0-.71,0c0,.44,0,.86,0,1.25l0,2c.47,0,.9,0,1.29,0a8.39,8.39,0,0,0,1.21-.07.4.4,0,0,0,.25-.09A1.4,1.4,0,0,0,18,65l0-.42h.36v.11l0,1.25,0,1.39H18L18,67a1.21,1.21,0,0,0-.08-.55.38.38,0,0,0-.26-.15,8.75,8.75,0,0,0-1.32-.07l-1.14,0c0,.4,0,1,0,1.78s0,1.3,0,1.69c.58,0,1.22.06,1.94.06a7.1,7.1,0,0,0,1.08,0,2.2,2.2,0,0,0,.6-.16,2.62,2.62,0,0,0,.14-.5c.09-.36.15-.63.18-.8h.39a16.69,16.69,0,0,0-.15,2,8.89,8.89,0,0,1-1.26.08l-3.57,0Z"/><path class="cls-2" d="M20.21,70.31V70l1.45-1.79,3.42-4.4c.48-.62.83-1.09,1.05-1.43h-2a18,18,0,0,0-2.26.12.59.59,0,0,0-.29.1.79.79,0,0,0-.1.37l-.09.84H21c0-.33,0-.62,0-.84q0-.66,0-1.14c.18,0,.82,0,1.91,0l2.24,0,1.37,0,1.3,0v.35c-.42.49-.73.86-.92,1.12l-5,6.43,1.28,0h1.19c.75,0,1.46,0,2.11-.08a1.17,1.17,0,0,0,.63-.14,1.25,1.25,0,0,0,.19-.54l.14-.85h.38c0,.32-.05.62-.06.91l0,1.21q-.6.06-1.5.06l-3.08,0H22l-1.34,0Z"/><path class="cls-2" d="M28.4,70.31V70l1.44-1.79,3.43-4.4c.47-.62.82-1.09,1-1.43h-2a18.16,18.16,0,0,0-2.26.12.55.55,0,0,0-.28.1.76.76,0,0,0-.11.37l-.09.84h-.38c0-.33,0-.62,0-.84q0-.66,0-1.14c.18,0,.81,0,1.91,0l2.24,0,1.36,0,1.3,0v.35c-.41.49-.72.86-.92,1.12l-5,6.43,1.29,0h1.18c.76,0,1.46,0,2.12-.08a1.17,1.17,0,0,0,.63-.14,1.15,1.15,0,0,0,.18-.54l.15-.85H36c0,.32,0,.62-.06.91l0,1.21q-.62.06-1.5.06l-3.09,0H30.17l-1.34,0Z"/><path class="cls-2" d="M36.58,70.31V69.9a2.36,2.36,0,0,0,.59,0,.45.45,0,0,0,.21-.12,1.62,1.62,0,0,0,.29-.48l.78-1.69L40,64.19l1-2.48h.38l2.56,6c.42,1,.69,1.59.83,1.84a.6.6,0,0,0,.25.27,1.55,1.55,0,0,0,.61.07v.41c-.63,0-1.06-.06-1.31-.06l-1.93.06V69.9a5.46,5.46,0,0,0,.82,0,.34.34,0,0,0,.19-.09.16.16,0,0,0,.05-.14,1.14,1.14,0,0,0-.08-.34l-.74-1.83H39.16L38.51,69a1.75,1.75,0,0,0-.18.6.2.2,0,0,0,.05.14.38.38,0,0,0,.21.11,4.27,4.27,0,0,0,.78.05v.41c-.68,0-1.19,0-1.52,0S37,70.27,36.58,70.31ZM39.37,67h3l-1.5-3.61Z"/><path class="cls-2" d="M46.26,70.31v-.38a2.34,2.34,0,0,0,.82-.09.2.2,0,0,0,.12-.12,2.18,2.18,0,0,0,.09-.63c0-.52,0-1,0-1.36V62.84a.73.73,0,0,0,0-.25.69.69,0,0,0-.22-.26.39.39,0,0,0-.24-.12,5.18,5.18,0,0,0-.63,0V61.8l1.26,0,.87,0,.75,1,1.24,1.53,1.81,2.18c.57.69,1,1.24,1.39,1.64s.41.47.57.62V64.37c0-.39,0-.85-.05-1.38a2.37,2.37,0,0,0-.07-.61.25.25,0,0,0-.13-.12,3,3,0,0,0-.82-.09V61.8l1.43,0,1.24,0v.37a3,3,0,0,0-.82.09.23.23,0,0,0-.12.12,2,2,0,0,0-.08.63c0,.53,0,1,0,1.36v2.88q0,.89,0,3.27l-.62-.18-.14,0-.07,0L53.62,70c-.34-.37-.58-.65-.74-.85l-.77-1-4.25-5.08v4.6c0,.39,0,.85,0,1.38a2.61,2.61,0,0,0,.08.61.22.22,0,0,0,.13.12,2.34,2.34,0,0,0,.82.09v.38c-.35,0-.74,0-1.16,0S46.8,70.28,46.26,70.31Z"/><path class="cls-2" d="M1,76.56V76.2l1.14,0,1.06,0c.33.76.64,1.42.91,2l2.16,4.43,1.94-4.06c.53-1.1.88-1.89,1.06-2.36l1,0,1.23,0v.36a4.47,4.47,0,0,0-.82.06.34.34,0,0,0-.2.14,1.29,1.29,0,0,0-.09.55c0,.07,0,.61,0,1.61v2.63c0,.52,0,1,0,1.51a1.89,1.89,0,0,0,.08.64.34.34,0,0,0,.21.15,4.47,4.47,0,0,0,.82.06v.36l-1.62,0-1.68,0v-.36A4.37,4.37,0,0,0,9,83.85a.35.35,0,0,0,.2-.13,1.35,1.35,0,0,0,.09-.56c0-.08,0-.61,0-1.61V77.38l-2,4.1c-.31.64-.55,1.16-.72,1.55s-.32.73-.57,1.35H5.89c0-.14-.1-.26-.14-.35l-.39-.82L2.65,77.57v4c0,.52,0,1,0,1.51a1.89,1.89,0,0,0,.08.64.41.41,0,0,0,.21.15,4.47,4.47,0,0,0,.82.06v.36l-1.37,0L1,84.27v-.36a4.47,4.47,0,0,0,.82-.06.39.39,0,0,0,.2-.13,1.35,1.35,0,0,0,.09-.56c0-.08,0-.61,0-1.61V78.92c0-.51,0-1,0-1.51A1.89,1.89,0,0,0,2,76.77a.34.34,0,0,0-.21-.15A4.47,4.47,0,0,0,1,76.56Z"/><path class="cls-2" d="M12.19,84.27v-.36a2.21,2.21,0,0,0,.79-.09.22.22,0,0,0,.11-.1,2.18,2.18,0,0,0,.08-.6c0-.5,0-.93,0-1.3v-2.9c0-.51,0-1,0-1.51a1.79,1.79,0,0,0-.09-.64.34.34,0,0,0-.21-.15,4.37,4.37,0,0,0-.82-.06V76.2l1.62,0,1.72,0c.82,0,1.41,0,1.79,0a8.91,8.91,0,0,1,1.06.06c-.06.22-.1.4-.13.56s0,.43-.1,1.18h-.36a5.78,5.78,0,0,0-.07-1,2.5,2.5,0,0,0-.69-.18,10.83,10.83,0,0,0-1.27-.08l-.61,0-.67,0c0,.43,0,.82,0,1.19l0,1.92,1.22,0a9.29,9.29,0,0,0,1.15-.06.46.46,0,0,0,.24-.09,1.64,1.64,0,0,0,.09-.47l0-.4h.34V79l0,1.18,0,1.33H17v-.39a1.39,1.39,0,0,0-.08-.52.34.34,0,0,0-.25-.14,6.76,6.76,0,0,0-1.25-.07l-1.08,0q0,.57,0,1.68c0,.7,0,1.24,0,1.6.54,0,1.16.06,1.83.06a8.32,8.32,0,0,0,1,0,2,2,0,0,0,.57-.16,3.07,3.07,0,0,0,.14-.47c.08-.34.13-.59.16-.76h.38a15,15,0,0,0-.15,1.9,8.1,8.1,0,0,1-1.19.07l-3.39,0Z"/><path class="cls-2" d="M19.41,84.27V84l.55-.34c0-.26,0-.62.05-1.07,0-.79,0-1.33,0-1.63V78.64c0-.37,0-.8,0-1.3a2.08,2.08,0,0,0-.08-.59.32.32,0,0,0-.12-.11,2.45,2.45,0,0,0-.78-.08V76.2l1.47,0c.32,0,.77,0,1.33,0l1.31,0a6,6,0,0,1,2.24.35,3.38,3.38,0,0,1,2,3.23,4.75,4.75,0,0,1-.28,1.62,4.45,4.45,0,0,1-1.78,2.22,4.57,4.57,0,0,1-1.14.49,6,6,0,0,1-1.65.17l-.94,0-1,0C20.39,84.23,20,84.24,19.41,84.27Zm1.76-.62a7.83,7.83,0,0,0,1.32.11,6,6,0,0,0,1.26-.12,3.35,3.35,0,0,0,.94-.36,2.71,2.71,0,0,0,.75-.67A3.07,3.07,0,0,0,26,81.48a5.25,5.25,0,0,0,.19-1.43,4,4,0,0,0-.37-1.81,2.58,2.58,0,0,0-1.14-1.17,4.65,4.65,0,0,0-2.09-.4,9.81,9.81,0,0,0-1.42.11q0,.27,0,1l0,.82v4C21.14,82.89,21.15,83.23,21.17,83.65Z"/><path class="cls-2" d="M31.51,83.91v.36l-1.59,0-1.75,0v-.36a4.32,4.32,0,0,0,.81-.06.42.42,0,0,0,.21-.13,1.63,1.63,0,0,0,.08-.56c0-.08,0-.61,0-1.61V78.92c0-.51,0-1,0-1.51a1.89,1.89,0,0,0-.08-.64.41.41,0,0,0-.21-.15,4.47,4.47,0,0,0-.82-.06V76.2c.72,0,1.28,0,1.67,0s.94,0,1.67,0v.36a4.47,4.47,0,0,0-.82.06.34.34,0,0,0-.2.14,1.47,1.47,0,0,0-.09.55c0,.07,0,.61,0,1.61v2.63c0,.52,0,1,0,1.51a1.89,1.89,0,0,0,.08.64.34.34,0,0,0,.21.15A4.47,4.47,0,0,0,31.51,83.91Z"/><path class="cls-2" d="M39.74,83.27l-.22.52a5.46,5.46,0,0,1-1.3.49,6,6,0,0,1-1.38.15,5.71,5.71,0,0,1-1.64-.22,4.48,4.48,0,0,1-1.32-.63,4,4,0,0,1-1.47-2,4.23,4.23,0,0,1-.19-1.31,4,4,0,0,1,1.27-3A4.84,4.84,0,0,1,36.94,76a7,7,0,0,1,1,.06,9.28,9.28,0,0,1,1.08.23l.77.2a3.8,3.8,0,0,0-.18.61,8.24,8.24,0,0,0-.13,1.12h-.36v-.67a1,1,0,0,0-.62-.83,3.89,3.89,0,0,0-1.64-.27,4.2,4.2,0,0,0-1.37.21,2.69,2.69,0,0,0-1,.61,3.36,3.36,0,0,0-.7,1.08A4.46,4.46,0,0,0,33.47,80a3.61,3.61,0,0,0,3.83,3.82,4.44,4.44,0,0,0,1.44-.22,3.39,3.39,0,0,0,.91-.46Z"/><path class="cls-2" d="M40.27,84.27v-.38a3.75,3.75,0,0,0,.56,0,.47.47,0,0,0,.2-.12,2,2,0,0,0,.27-.46c.07-.14.31-.67.74-1.59l1.42-3.21c.15-.35.49-1.13,1-2.35h.37l2.43,5.7q.59,1.38.78,1.74a.56.56,0,0,0,.24.26,1.86,1.86,0,0,0,.57.07v.38c-.59,0-1,0-1.23,0l-1.83,0v-.38c.42,0,.68,0,.77,0a.3.3,0,0,0,.18-.09.15.15,0,0,0,.05-.13.78.78,0,0,0-.08-.32L46,81.57H42.72L42.1,83a1.74,1.74,0,0,0-.17.57.19.19,0,0,0,0,.13.27.27,0,0,0,.19.1,4.77,4.77,0,0,0,.74.06v.38c-.64,0-1.12,0-1.44,0S40.7,84.24,40.27,84.27Zm2.64-3.18h2.87l-1.42-3.43Z"/><path class="cls-2" d="M49.84,84.27V84a2.32,2.32,0,0,0,.45-.26.32.32,0,0,0,.08-.14,4.07,4.07,0,0,0,.07-.68c0-.52,0-.82,0-.92V78.92c0-.51,0-1,0-1.51a1.89,1.89,0,0,0-.08-.64.34.34,0,0,0-.21-.15,4.47,4.47,0,0,0-.82-.06V76.2l1.71,0,1.63,0v.36a4.47,4.47,0,0,0-.82.06.38.38,0,0,0-.2.14,1.55,1.55,0,0,0-.08.55c0,.07,0,.61,0,1.61v3.82c0,.4,0,.72,0,1,.43,0,.86,0,1.28,0a8.63,8.63,0,0,0,2.24-.2,2.09,2.09,0,0,0,.13-.4l.23-.94h.38c-.08.56-.16,1.23-.24,2l-.37.06h-.91l-3.36,0C50.58,84.23,50.21,84.24,49.84,84.27Z"/><path class="cls-2" d="M67.5,56.39a38.39,38.39,0,0,0-2.41-3.21c-6-7.18-15.1-14-21.43-20.4-6-6.08-8.32-9.87-3.64-14.41a22.08,22.08,0,0,1,1.9-1.6v0a26.42,26.42,0,0,1,7.79-3.53S48.21,7.74,45,6.19l-.16-.06a6.17,6.17,0,0,0-5.82,0c-6.31,2.94-3.92,12.09-3,15-5.79,6.51-1.67,12.61,5.86,20.66,2.21,2.36,4.62,4.72,7,7.08,3.57,3.5,7.15,7,10.07,10.43,4.24,5,7.08,10,6.5,14.7-.44,3.5-2.73,6.9-7.7,10.18a40.65,40.65,0,0,0,8.93-7.39l.5-.6A15.86,15.86,0,0,0,71,68C71.43,64,70,60.14,67.5,56.39Z"/><path class="cls-2" d="M1.15,91.86A2.53,2.53,0,0,1,2,90a2.62,2.62,0,0,1,1.93-.79A2.62,2.62,0,0,1,5.8,90a2.61,2.61,0,0,1,.79,1.92,2.52,2.52,0,0,1-.8,1.9,2.66,2.66,0,0,1-1.94.79A2.68,2.68,0,0,1,2,93.88,2.56,2.56,0,0,1,1.15,91.86Zm.79,0a1.91,1.91,0,0,0,.58,1.42,1.88,1.88,0,0,0,1.34.55,1.91,1.91,0,0,0,1.38-.56,2,2,0,0,0,.56-1.4,1.92,1.92,0,0,0-.55-1.4,1.83,1.83,0,0,0-1.37-.56,1.86,1.86,0,0,0-1.38.56A1.92,1.92,0,0,0,1.94,91.87Z"/><path class="cls-2" d="M8.06,96.27H7.3V91.2h.76v.36a1.41,1.41,0,0,1,1-.45,1.39,1.39,0,0,1,1.11.5,1.78,1.78,0,0,1,.45,1.25,1.8,1.8,0,0,1-.44,1.23,1.41,1.41,0,0,1-1.11.49,1.44,1.44,0,0,1-1-.46Zm1.8-3.41a1.15,1.15,0,0,0-.25-.77.84.84,0,0,0-.66-.3.86.86,0,0,0-.67.29,1.08,1.08,0,0,0-.26.76,1.11,1.11,0,0,0,.26.77A.86.86,0,0,0,9,93.9a.82.82,0,0,0,.65-.3A1,1,0,0,0,9.86,92.86Z"/><path class="cls-2" d="M14.3,93H11.94a1,1,0,0,0,.27.64.87.87,0,0,0,1.06.11,2.12,2.12,0,0,0,.42-.5l.64.35a2.63,2.63,0,0,1-.32.44,1.35,1.35,0,0,1-.35.29,1.23,1.23,0,0,1-.41.17,1.73,1.73,0,0,1-.47.06,1.55,1.55,0,0,1-1.18-.47,1.78,1.78,0,0,1-.45-1.27,1.8,1.8,0,0,1,.43-1.26,1.52,1.52,0,0,1,1.16-.47,1.46,1.46,0,0,1,1.14.46,1.8,1.8,0,0,1,.42,1.27Zm-.78-.62a.73.73,0,0,0-.77-.61,1.09,1.09,0,0,0-.26,0,.71.71,0,0,0-.22.13.79.79,0,0,0-.17.19.82.82,0,0,0-.11.25Z"/><path class="cls-2" d="M15,91.2h.76v.29a1.73,1.73,0,0,1,.37-.3.8.8,0,0,1,.39-.08,1.23,1.23,0,0,1,.63.19l-.35.7a.67.67,0,0,0-.42-.16c-.41,0-.62.32-.62.94v1.7H15Z"/><path class="cls-2" d="M19.81,91.2h.76v3.28h-.76v-.34a1.47,1.47,0,0,1-1,.44,1.5,1.5,0,0,1-1.13-.49,1.88,1.88,0,0,1-.44-1.26,1.8,1.8,0,0,1,.44-1.23,1.44,1.44,0,0,1,1.11-.49,1.38,1.38,0,0,1,1,.47ZM18,92.83a1.13,1.13,0,0,0,.25.77.84.84,0,0,0,.66.3.89.89,0,0,0,.68-.29,1.24,1.24,0,0,0,0-1.52.87.87,0,0,0-.68-.3.82.82,0,0,0-.65.3A1.11,1.11,0,0,0,18,92.83Z"/><path class="cls-2" d="M22.18,91.91v2.57h-.76V91.91h-.33V91.2h.33V90h.76V91.2h.59v.71Z"/><path class="cls-2" d="M26.2,93H23.84a1,1,0,0,0,.27.64.87.87,0,0,0,1.06.11,2.12,2.12,0,0,0,.42-.5l.64.35a2.63,2.63,0,0,1-.32.44,1.35,1.35,0,0,1-.35.29,1.23,1.23,0,0,1-.41.17,1.73,1.73,0,0,1-.47.06,1.55,1.55,0,0,1-1.18-.47,1.78,1.78,0,0,1-.45-1.27,1.8,1.8,0,0,1,.43-1.26,1.52,1.52,0,0,1,1.16-.47,1.46,1.46,0,0,1,1.14.46,1.8,1.8,0,0,1,.42,1.27Zm-.78-.62a.73.73,0,0,0-.77-.61,1.09,1.09,0,0,0-.26,0,.71.71,0,0,0-.22.13.79.79,0,0,0-.17.19.82.82,0,0,0-.11.25Z"/><path class="cls-2" d="M29.31,88.79h.76v5.69h-.76v-.34a1.43,1.43,0,0,1-1,.44,1.46,1.46,0,0,1-1.12-.49,1.84,1.84,0,0,1-.45-1.26,1.76,1.76,0,0,1,.45-1.23,1.4,1.4,0,0,1,1.1-.49,1.38,1.38,0,0,1,1,.47Zm-1.8,4a1.13,1.13,0,0,0,.25.77.84.84,0,0,0,.66.3.88.88,0,0,0,.68-.29,1.24,1.24,0,0,0,0-1.52.85.85,0,0,0-.68-.3.83.83,0,0,0-.65.3A1.11,1.11,0,0,0,27.51,92.83Z"/><path class="cls-2" d="M33.37,88.79v2.79a1.38,1.38,0,0,1,1-.47,1.42,1.42,0,0,1,1.11.49A1.8,1.8,0,0,1,36,92.83a1.84,1.84,0,0,1-.44,1.26,1.48,1.48,0,0,1-1.12.49,1.44,1.44,0,0,1-1-.44v.34h-.76V88.79Zm1.81,4.07a1.11,1.11,0,0,0-.26-.76.8.8,0,0,0-.65-.31.85.85,0,0,0-.68.3,1,1,0,0,0-.26.75,1.12,1.12,0,0,0,.25.77.88.88,0,0,0,.68.29.84.84,0,0,0,.65-.29A1.08,1.08,0,0,0,35.18,92.86Z"/><path class="cls-2" d="M37.53,93.87,36.05,91.2h.88l1,1.89.93-1.89h.86l-2.62,5.07h-.86Z"/><path class="cls-2" d="M43.56,89.27v3.38a3.35,3.35,0,0,1-.09.9,1.39,1.39,0,0,1-.28.57,1.36,1.36,0,0,1-1,.46,1.75,1.75,0,0,1-.92-.26l.38-.67a1,1,0,0,0,.54.19.51.51,0,0,0,.49-.26,2.25,2.25,0,0,0,.14-.93V89.27Z"/><path class="cls-2" d="M46.94,91.2h.77v3.28h-.77v-.34a1.44,1.44,0,0,1-1,.44,1.48,1.48,0,0,1-1.13-.49,1.83,1.83,0,0,1-.44-1.26,1.75,1.75,0,0,1,.44-1.23,1.41,1.41,0,0,1,1.11-.49,1.36,1.36,0,0,1,1,.47Zm-1.8,1.63a1.14,1.14,0,0,0,.26.77.82.82,0,0,0,.65.3.88.88,0,0,0,.68-.29,1.24,1.24,0,0,0,0-1.52.85.85,0,0,0-.67-.3.85.85,0,0,0-.66.3A1.11,1.11,0,0,0,45.14,92.83Z"/><path class="cls-2" d="M50.44,91.76l-.63.33c-.1-.2-.22-.3-.37-.3a.24.24,0,0,0-.18.07.21.21,0,0,0-.07.17c0,.13.14.26.44.38a2.5,2.5,0,0,1,.81.48.8.8,0,0,1,.21.59,1,1,0,0,1-.35.79,1.17,1.17,0,0,1-.83.31,1.19,1.19,0,0,1-1.17-.81l.65-.3a1.17,1.17,0,0,0,.21.3.44.44,0,0,0,.33.13c.25,0,.38-.12.38-.35s-.1-.26-.29-.38l-.23-.11L49.11,93a1.4,1.4,0,0,1-.46-.33.74.74,0,0,1-.17-.52.91.91,0,0,1,.29-.71,1,1,0,0,1,.73-.28A1,1,0,0,1,50.44,91.76Z"/><path class="cls-2" d="M53.1,91.76l-.63.33q-.15-.3-.36-.3a.24.24,0,0,0-.18.07.21.21,0,0,0-.08.17c0,.13.15.26.44.38a2.39,2.39,0,0,1,.81.48.8.8,0,0,1,.21.59,1,1,0,0,1-.35.79,1.15,1.15,0,0,1-.82.31A1.19,1.19,0,0,1,51,93.77l.65-.3a1.62,1.62,0,0,0,.2.3.48.48,0,0,0,.33.13c.26,0,.39-.12.39-.35s-.1-.26-.3-.38L52,93.06,51.78,93a1.46,1.46,0,0,1-.47-.33.79.79,0,0,1-.17-.52.94.94,0,0,1,.29-.71,1,1,0,0,1,.73-.28A1,1,0,0,1,53.1,91.76Z"/><path class="cls-2" d="M53.74,89.83a.45.45,0,0,1,.15-.34.45.45,0,0,1,.35-.15.49.49,0,0,1,.35.15.48.48,0,0,1,.14.34.52.52,0,0,1-.14.36.5.5,0,0,1-.35.14.48.48,0,0,1-.35-.14A.49.49,0,0,1,53.74,89.83Zm.88,1.37v3.28h-.76V91.2Z"/><path class="cls-2" d="M55.44,91.2h.76v.3a2.07,2.07,0,0,1,.37-.31.88.88,0,0,1,.42-.08,1,1,0,0,1,.88.48,1.15,1.15,0,0,1,1-.48c.74,0,1.11.45,1.11,1.34v2h-.77V92.66a1.37,1.37,0,0,0-.11-.67.43.43,0,0,0-.39-.2.5.5,0,0,0-.46.24,1.6,1.6,0,0,0-.14.76v1.69h-.76V92.67c0-.59-.17-.88-.51-.88a.49.49,0,0,0-.46.24,1.47,1.47,0,0,0-.15.76v1.69h-.76Z"/><path class="cls-2" d="M65.69,93.22H63.46l-.58,1.26H62L64.61,89l2.49,5.53h-.86Zm-.32-.74-.77-1.77-.81,1.77Z"/><path class="cls-2" d="M68.22,88.79v5.69h-.76V88.79Z"/><path class="cls-2" d="M69.46,91.2l.86,1.87.93-2.17.93,2.17L73,91.2h.85l-1.72,3.53-.91-2.11-.93,2.11L68.6,91.2Z"/><path class="cls-2" d="M76.57,91.2h.76v3.28h-.76v-.34a1.46,1.46,0,0,1-2.14,0A1.88,1.88,0,0,1,74,92.83a1.8,1.8,0,0,1,.44-1.23,1.42,1.42,0,0,1,1.11-.49,1.39,1.39,0,0,1,1,.47Zm-1.8,1.63a1.13,1.13,0,0,0,.25.77.82.82,0,0,0,.65.3.88.88,0,0,0,.68-.29,1.24,1.24,0,0,0,0-1.52.83.83,0,0,0-.67-.3.82.82,0,0,0-.65.3A1.06,1.06,0,0,0,74.77,92.83Z"/><path class="cls-2" d="M79.24,93.77h2v.71H77.73l2.13-2.57H78.19V91.2h3.18Z"/><path class="cls-2" d="M82.86,93.77h2v.71H81.35l2.13-2.57H81.8V91.2H85Z"/><path class="cls-2" d="M87.81,91.2h.76v3.28h-.76v-.34a1.46,1.46,0,0,1-2.14,0,1.88,1.88,0,0,1-.44-1.26,1.8,1.8,0,0,1,.44-1.23,1.41,1.41,0,0,1,1.11-.49,1.39,1.39,0,0,1,1,.47ZM86,92.83a1.14,1.14,0,0,0,.26.77.82.82,0,0,0,.65.3.88.88,0,0,0,.68-.29,1.24,1.24,0,0,0,0-1.52.85.85,0,0,0-.67-.3.85.85,0,0,0-.66.3A1.11,1.11,0,0,0,86,92.83Z"/><path class="cls-2" d="M89.39,91.2h.76v.3a1.25,1.25,0,0,1,.9-.39,1.12,1.12,0,0,1,.89.36,1.44,1.44,0,0,1,.28,1v2h-.76V92.65a1.17,1.17,0,0,0-.14-.67.54.54,0,0,0-.48-.19.56.56,0,0,0-.53.25,1.63,1.63,0,0,0-.16.86v1.58h-.76Z"/><path class="cls-2" d="M97.85,90.05l-.64.38a1.14,1.14,0,0,0-.34-.41.82.82,0,0,0-.44-.1.8.8,0,0,0-.54.18.6.6,0,0,0-.22.46c0,.25.19.46.57.61l.52.22a2.32,2.32,0,0,1,.93.62,1.46,1.46,0,0,1,.29.91,1.61,1.61,0,0,1-.48,1.19,1.77,1.77,0,0,1-2.32.07,1.86,1.86,0,0,1-.54-1.13l.8-.18a1.31,1.31,0,0,0,.19.64.81.81,0,0,0,.71.33A.85.85,0,0,0,97,93.6a.88.88,0,0,0,.24-.63,1.26,1.26,0,0,0,0-.28.79.79,0,0,0-.14-.23.77.77,0,0,0-.23-.2,1.69,1.69,0,0,0-.33-.17l-.51-.21c-.71-.31-1.07-.75-1.07-1.33a1.25,1.25,0,0,1,.45-1,1.65,1.65,0,0,1,1.12-.4A1.58,1.58,0,0,1,97.85,90.05Z"/><path class="cls-2" d="M98.49,92.82A1.62,1.62,0,0,1,99,91.61a1.67,1.67,0,0,1,1.24-.5,1.7,1.7,0,0,1,1.25.5,1.75,1.75,0,0,1,0,2.47,1.76,1.76,0,0,1-1.26.5A1.67,1.67,0,0,1,99,94.07,1.7,1.7,0,0,1,98.49,92.82Zm.78,0a1.08,1.08,0,0,0,.26.78.94.94,0,0,0,.71.29.91.91,0,0,0,.71-.29,1.05,1.05,0,0,0,.27-.76,1.08,1.08,0,0,0-.27-.77,1,1,0,0,0-1.41,0A1.06,1.06,0,0,0,99.27,92.83Z"/><path class="cls-2" d="M102.66,91.2h.76v.3a1.27,1.27,0,0,1,.9-.39,1.16,1.16,0,0,1,.9.36,1.5,1.5,0,0,1,.27,1v2h-.76V92.65a1.17,1.17,0,0,0-.14-.67.51.51,0,0,0-.47-.19.57.57,0,0,0-.54.25,1.73,1.73,0,0,0-.16.86v1.58h-.76Z"/><path class="cls-2" d="M108.22,91.76l-.63.33q-.15-.3-.36-.3a.24.24,0,0,0-.18.07A.21.21,0,0,0,107,92c0,.13.15.26.44.38a2.39,2.39,0,0,1,.81.48.8.8,0,0,1,.21.59,1,1,0,0,1-.35.79,1.15,1.15,0,0,1-.82.31,1.19,1.19,0,0,1-1.17-.81l.65-.3a1.62,1.62,0,0,0,.2.3.48.48,0,0,0,.33.13c.26,0,.39-.12.39-.35s-.1-.26-.3-.38l-.23-.11L106.9,93a1.46,1.46,0,0,1-.47-.33.79.79,0,0,1-.17-.52.94.94,0,0,1,.29-.71,1,1,0,0,1,.73-.28A1,1,0,0,1,108.22,91.76Z"/><path class="cls-2" d="M4.09,100.06H6.24v.17a3.59,3.59,0,0,1-.14,1,2.33,2.33,0,0,1-.45.79,2.38,2.38,0,0,1-1.85.81,2.52,2.52,0,0,1-1.87-.79,2.72,2.72,0,0,1,0-3.82,2.63,2.63,0,0,1,1.93-.8A2.72,2.72,0,0,1,5,97.71a3.43,3.43,0,0,1,1,.81l-.56.54a1.9,1.9,0,0,0-1.56-.85,1.85,1.85,0,0,0-1.39.57,1.91,1.91,0,0,0-.56,1.4,1.85,1.85,0,0,0,.62,1.43,1.87,1.87,0,0,0,1.27.53,1.57,1.57,0,0,0,1-.39,1.42,1.42,0,0,0,.52-1H4.09Z"/><path class="cls-2" d="M9.94,101.31H7.58a1,1,0,0,0,.27.65.81.81,0,0,0,.59.23.77.77,0,0,0,.47-.13,2.12,2.12,0,0,0,.42-.5l.64.35a2.61,2.61,0,0,1-.31.44,1.69,1.69,0,0,1-.36.3,1.86,1.86,0,0,1-.41.17,2.26,2.26,0,0,1-.47.05,1.55,1.55,0,0,1-1.18-.47,1.77,1.77,0,0,1-.45-1.26,1.84,1.84,0,0,1,.43-1.27,1.52,1.52,0,0,1,1.16-.47,1.46,1.46,0,0,1,1.14.46,1.82,1.82,0,0,1,.42,1.27Zm-.78-.62a.74.74,0,0,0-.77-.61.75.75,0,0,0-.26,0,.53.53,0,0,0-.22.12.79.79,0,0,0-.17.19,1.45,1.45,0,0,0-.11.25Z"/><path class="cls-2" d="M10.63,99.49h.76v.3a1.27,1.27,0,0,1,.9-.39,1.12,1.12,0,0,1,.89.36,1.44,1.44,0,0,1,.28,1v2H12.7v-1.84a1.19,1.19,0,0,0-.14-.67.52.52,0,0,0-.48-.19.56.56,0,0,0-.53.25,1.63,1.63,0,0,0-.16.86v1.59h-.76Z"/><path class="cls-2" d="M17.27,101.31H14.92a1,1,0,0,0,.26.65.85.85,0,0,0,.6.23.79.79,0,0,0,.47-.13,1.9,1.9,0,0,0,.41-.5l.64.35a2.61,2.61,0,0,1-.31.44,1.93,1.93,0,0,1-.35.3,2.09,2.09,0,0,1-.41.17,2.44,2.44,0,0,1-.48.05,1.57,1.57,0,0,1-1.18-.47,1.76,1.76,0,0,1-.44-1.26,1.84,1.84,0,0,1,.43-1.27,1.5,1.5,0,0,1,1.15-.47,1.48,1.48,0,0,1,1.15.46,1.82,1.82,0,0,1,.42,1.27Zm-.78-.62a.73.73,0,0,0-.76-.61.75.75,0,0,0-.26,0,.48.48,0,0,0-.22.12.52.52,0,0,0-.17.19.71.71,0,0,0-.11.25Z"/><path class="cls-2" d="M18,99.49h.75v.29a1.75,1.75,0,0,1,.38-.3.93.93,0,0,1,.39-.08,1.17,1.17,0,0,1,.62.19l-.34.7a.79.79,0,0,0-.42-.16c-.42,0-.63.32-.63.94v1.71H18Z"/><path class="cls-2" d="M22.79,99.49h.76v3.29h-.76v-.35a1.48,1.48,0,0,1-1,.44,1.45,1.45,0,0,1-1.13-.49,1.88,1.88,0,0,1-.44-1.26,1.8,1.8,0,0,1,.44-1.23,1.43,1.43,0,0,1,2.14,0ZM21,101.12a1.14,1.14,0,0,0,.26.77.82.82,0,0,0,.65.3.88.88,0,0,0,.68-.29,1.24,1.24,0,0,0,0-1.52.83.83,0,0,0-.67-.3.85.85,0,0,0-.66.3A1.11,1.11,0,0,0,21,101.12Z"/><path class="cls-2" d="M25.13,97.08v5.7h-.76v-5.7Z"/><path class="cls-2" d="M29.25,98.3v4.48h-.78V98.3h-1.2v-.73h3.18v.73Z"/><path class="cls-2" d="M30.63,99.49h.76v.29a1.73,1.73,0,0,1,.37-.3.93.93,0,0,1,.39-.08,1.23,1.23,0,0,1,.63.19l-.35.7a.76.76,0,0,0-.42-.16c-.42,0-.62.32-.62.94v1.71h-.76Z"/><path class="cls-2" d="M35.45,99.49h.76v3.29h-.76v-.35a1.46,1.46,0,0,1-2.14-.05,1.88,1.88,0,0,1-.44-1.26,1.8,1.8,0,0,1,.44-1.23,1.44,1.44,0,0,1,1.11-.49,1.41,1.41,0,0,1,1,.47Zm-1.8,1.63a1.13,1.13,0,0,0,.25.77.82.82,0,0,0,.65.3.9.9,0,0,0,.69-.29,1.24,1.24,0,0,0,0-1.52.87.87,0,0,0-.68-.3.82.82,0,0,0-.65.3A1.06,1.06,0,0,0,33.65,101.12Z"/><path class="cls-2" d="M39.45,97.08h.77v5.7h-.77v-.35a1.41,1.41,0,0,1-1,.44,1.44,1.44,0,0,1-1.12-.49,1.83,1.83,0,0,1-.44-1.26,1.75,1.75,0,0,1,.44-1.23,1.42,1.42,0,0,1,2.13,0Zm-1.8,4a1.14,1.14,0,0,0,.26.77.82.82,0,0,0,.65.3.88.88,0,0,0,.68-.29,1.24,1.24,0,0,0,0-1.52.85.85,0,0,0-.67-.3.85.85,0,0,0-.66.3A1.11,1.11,0,0,0,37.65,101.12Z"/><path class="cls-2" d="M40.92,98.12a.46.46,0,0,1,.15-.34.45.45,0,0,1,.34-.15.49.49,0,0,1,.36.15.48.48,0,0,1,.14.35.48.48,0,0,1-.49.49.48.48,0,0,1-.35-.14A.49.49,0,0,1,40.92,98.12Zm.88,1.37v3.29H41V99.49Z"/><path class="cls-2" d="M42.62,99.49h.76v.3a1.27,1.27,0,0,1,.9-.39,1.12,1.12,0,0,1,.89.36,1.44,1.44,0,0,1,.28,1v2h-.76v-1.84a1.19,1.19,0,0,0-.14-.67.54.54,0,0,0-.48-.19.56.56,0,0,0-.53.25,1.63,1.63,0,0,0-.16.86v1.59h-.76Z"/><path class="cls-2" d="M49.45,102.7c0,.15,0,.29,0,.41a2.36,2.36,0,0,1,0,.31,1.34,1.34,0,0,1-.32.64,1.52,1.52,0,0,1-1.22.51,1.65,1.65,0,0,1-1.08-.35,1.42,1.42,0,0,1-.51-1H47a.84.84,0,0,0,.15.37.78.78,0,0,0,.68.31q.84,0,.84-1v-.46a1.41,1.41,0,0,1-1,.46,1.37,1.37,0,0,1-1.1-.49,1.78,1.78,0,0,1-.44-1.23,1.89,1.89,0,0,1,.41-1.22,1.39,1.39,0,0,1,1.14-.53,1.33,1.33,0,0,1,1,.46v-.37h.76Zm-.73-1.56a1.12,1.12,0,0,0-.26-.77.85.85,0,0,0-.66-.29.81.81,0,0,0-.68.32,1.31,1.31,0,0,0,0,1.48.81.81,0,0,0,.68.31.82.82,0,0,0,.69-.32A1.14,1.14,0,0,0,48.72,101.14Z"/><path class="cls-2" d="M56,97.85v.93a2.16,2.16,0,0,0-1.41-.57,1.78,1.78,0,0,0-1.35.57,2,2,0,0,0-.56,1.41,1.89,1.89,0,0,0,.56,1.38,1.8,1.8,0,0,0,1.35.56,1.7,1.7,0,0,0,.71-.13,2.68,2.68,0,0,0,.33-.18,4,4,0,0,0,.37-.28v.95a2.88,2.88,0,0,1-1.42.38,2.6,2.6,0,0,1-1.9-.78,2.57,2.57,0,0,1-.79-1.9,2.67,2.67,0,0,1,.66-1.77A2.68,2.68,0,0,1,56,97.85Z"/><path class="cls-2" d="M56.53,101.11A1.62,1.62,0,0,1,57,99.9a1.69,1.69,0,0,1,1.24-.5,1.74,1.74,0,0,1,1.25.5,1.68,1.68,0,0,1,.51,1.24,1.64,1.64,0,0,1-.51,1.23,1.74,1.74,0,0,1-1.26.5,1.68,1.68,0,0,1-1.24-.51A1.7,1.7,0,0,1,56.53,101.11Zm.78,0a1.13,1.13,0,0,0,.26.78.94.94,0,0,0,.71.29.91.91,0,0,0,.72-.29,1.09,1.09,0,0,0,.26-.76,1.12,1.12,0,0,0-.26-.77,1,1,0,0,0-.72-.29.92.92,0,0,0-.7.29A1.08,1.08,0,0,0,57.31,101.12Z"/><path class="cls-2" d="M60.7,99.49h.76v.3a1.78,1.78,0,0,1,.38-.31,1,1,0,0,1,.41-.08,1,1,0,0,1,.88.48,1.15,1.15,0,0,1,1-.48c.74,0,1.11.45,1.11,1.34v2h-.76V101a1.37,1.37,0,0,0-.12-.67.41.41,0,0,0-.38-.2.49.49,0,0,0-.46.24,1.47,1.47,0,0,0-.15.76v1.7h-.76V101c0-.58-.17-.88-.5-.88a.51.51,0,0,0-.47.24,1.47,1.47,0,0,0-.15.76v1.7H60.7Z"/><path class="cls-2" d="M66.87,104.56h-.76V99.49h.76v.36A1.44,1.44,0,0,1,69,99.9a1.79,1.79,0,0,1,.44,1.25,1.75,1.75,0,0,1-.44,1.23,1.4,1.4,0,0,1-1.1.49,1.42,1.42,0,0,1-1-.46Zm1.81-3.41a1.16,1.16,0,0,0-.26-.77.82.82,0,0,0-.65-.3.88.88,0,0,0-.68.29,1.26,1.26,0,0,0,0,1.53.87.87,0,0,0,.67.29.84.84,0,0,0,.66-.3A1.08,1.08,0,0,0,68.68,101.15Z"/><path class="cls-2" d="M72.54,99.49h.76v3.29h-.76v-.35a1.47,1.47,0,0,1-1,.44,1.43,1.43,0,0,1-1.12-.49,1.84,1.84,0,0,1-.45-1.26,1.76,1.76,0,0,1,.45-1.23,1.42,1.42,0,0,1,2.13,0Zm-1.8,1.63a1.13,1.13,0,0,0,.25.77.84.84,0,0,0,.66.3.88.88,0,0,0,.68-.29,1.24,1.24,0,0,0,0-1.52.85.85,0,0,0-.68-.3.83.83,0,0,0-.65.3A1.11,1.11,0,0,0,70.74,101.12Z"/><path class="cls-2" d="M74.12,99.49h.77v.3a1.23,1.23,0,0,1,.89-.39,1.15,1.15,0,0,1,.9.36,1.5,1.5,0,0,1,.27,1v2h-.76v-1.84a1.21,1.21,0,0,0-.13-.67.54.54,0,0,0-.48-.19.59.59,0,0,0-.54.25,1.75,1.75,0,0,0-.15.86v1.59h-.77Z"/><path class="cls-2" d="M78.7,102.16l-1.48-2.67h.88l1,1.89.94-1.89h.85l-2.62,5.07h-.86Z"/><path class="cls-2" d="M83.4,97.57l1.36,3.48,1.41-3.74,1.36,3.74L89,97.57h.85l-2.32,5.54-1.34-3.7-1.4,3.7-2.21-5.54Z"/><path class="cls-2" d="M91.12,97.57V102h1.53v.74H90.33V97.57Z"/><path class="cls-2" d="M94,97.57V102h1.54v.74H93.26V97.57Z"/></svg>