<svg id="Capa_1" enable-background="new 0 0 512 512" height="512" viewBox="0 0 512 512" width="512" xmlns="http://www.w3.org/2000/svg"><g><path d="m466 402.928v-75.928c0-8.284-6.716-15-15-15h-90c-8.284 0-15 6.716-15 15v75h-30v-75c0-8.284-6.716-15-15-15h-90c-8.284 0-15 6.716-15 15v75h-30v-75c0-8.284-6.716-15-15-15h-90c-8.284 0-15 6.716-15 15v75.928c-25.567 4.717-45 27.161-45 54.072 0 30.327 24.673 55 55 55h400c30.327 0 55-24.673 55-55 0-26.911-19.433-49.355-45-54.072zm-258.965 29.072c-3.848 7.507-6.035 16-6.035 25s2.187 17.493 6.035 25h-102.07c3.848-7.507 6.035-16 6.035-25s-2.187-17.493-6.035-25zm23.965 25c0-13.785 11.215-25 25-25s25 11.215 25 25-11.215 25-25 25-25-11.215-25-25zm73.965-25h102.07c-3.848 7.507-6.035 16-6.035 25s2.187 17.493 6.035 25h-102.07c3.848-7.507 6.035-16 6.035-25s-2.187-17.493-6.035-25zm71.035-90h60v60h-60zm-150 0h60v60h-60zm-150 0h60v60h-60zm-45 115c0-13.785 11.215-25 25-25s25 11.215 25 25-11.215 25-25 25-25-11.215-25-25zm425 25c-13.785 0-25-11.215-25-25s11.215-25 25-25 25 11.215 25 25-11.215 25-25 25z"/><path d="m256 178.923c24.813 0 45-20.187 45-45s-20.187-45-45-45-45 20.187-45 45 20.187 45 45 45zm0-60c8.271 0 15 6.729 15 15s-6.729 15-15 15-15-6.729-15-15 6.729-15 15-15z"/><path d="m40.251 290.962c5.858-5.857 5.858-15.355 0-21.213-13.646-13.646-13.646-35.852 0-49.498 6.611-6.61 15.4-10.251 24.749-10.251s18.138 3.641 24.749 10.251c13.646 13.646 13.646 35.852 0 49.498-5.858 5.857-5.858 15.355 0 21.213 2.929 2.929 6.768 4.394 10.606 4.394s7.678-1.465 10.606-4.394c12.278-12.276 19.039-28.6 19.039-45.962s-6.761-33.686-19.038-45.962c-8.658-8.659-19.333-14.558-30.962-17.293v-32.823h41v15c0 8.284 6.716 15 15 15h25.21c2.413 5.1 5.224 9.977 8.417 14.604l-12.598 21.82c-4.143 7.175-1.685 16.349 5.49 20.49l51.961 30c3.444 1.989 7.539 2.526 11.383 1.499 3.842-1.03 7.118-3.544 9.107-6.989l12.577-21.784c5.638.479 11.146.484 16.901-.006l12.58 21.79c1.989 3.445 5.266 5.959 9.107 6.989 1.277.342 2.582.511 3.883.511 2.61 0 5.2-.682 7.5-2.01l51.961-30c7.175-4.142 9.633-13.315 5.49-20.49l-12.598-21.819c3.193-4.628 6.003-9.504 8.417-14.604h25.212c8.284 0 15-6.716 15-15v-15h41v32.823c-11.629 2.734-22.304 8.634-30.962 17.293-12.277 12.275-19.038 28.599-19.038 45.961s6.761 33.686 19.038 45.962c5.857 5.857 15.355 5.857 21.213 0s5.858-15.355 0-21.213c-13.646-13.646-13.646-35.852 0-49.498 6.611-6.61 15.4-10.251 24.749-10.251s18.138 3.641 24.749 10.251c13.646 13.646 13.646 35.852 0 49.498-5.858 5.857-5.858 15.355 0 21.213 2.929 2.929 6.768 4.394 10.606 4.394s7.678-1.465 10.606-4.394c12.278-12.276 19.039-28.6 19.039-45.962s-6.761-33.686-19.038-45.962c-8.658-8.659-19.333-14.558-30.962-17.293v-47.823c0-8.284-6.716-15-15-15h-56v-15c0-8.284-6.716-15-15-15h-25.21c-2.414-5.101-5.224-9.977-8.417-14.604l12.598-21.818c4.143-7.175 1.685-16.349-5.49-20.49l-51.961-30c-3.445-1.989-7.541-2.527-11.383-1.499-3.842 1.03-7.118 3.544-9.107 6.989l-12.58 21.79c-5.758-.491-11.266-.487-16.901-.006l-12.578-21.784c-1.989-3.445-5.266-5.959-9.107-6.989-3.841-1.028-7.937-.491-11.383 1.499l-51.961 30c-7.175 4.142-9.633 13.315-5.49 20.49l12.598 21.82c-3.193 4.627-6.004 9.504-8.417 14.603h-25.211c-8.284 0-15 6.716-15 15v15h-56c-8.284 0-15 6.716-15 15v47.823c-11.629 2.734-22.304 8.634-30.962 17.293-12.277 12.275-19.038 28.599-19.038 45.961s6.761 33.686 19.038 45.962c5.858 5.857 15.356 5.857 21.213 0zm110.749-172.039h20.23c6.354 0 12.02-4.004 14.14-9.994 3.096-8.743 7.689-16.712 13.654-23.685 4.132-4.832 4.77-11.744 1.591-17.25l-10.105-17.504 25.98-15 10.103 17.499c3.176 5.501 9.477 8.401 15.714 7.251 9.6-1.773 17.79-1.773 27.386 0 6.247 1.15 12.54-1.751 15.715-7.251l10.102-17.499 25.98 15-10.105 17.504c-3.18 5.507-2.541 12.419 1.592 17.251 5.962 6.969 10.556 14.938 13.653 23.686 2.121 5.989 7.786 9.992 14.14 9.992h20.23v30h-20.23c-6.354 0-12.019 4.003-14.14 9.993-3.098 8.747-7.691 16.717-13.653 23.686-4.133 4.832-4.771 11.744-1.592 17.251l10.105 17.504-25.98 15-10.103-17.499c-2.712-4.697-7.698-7.501-12.986-7.501-.904 0-1.816.082-2.729.25-9.587 1.771-17.793 1.771-27.386 0-6.237-1.149-12.538 1.751-15.714 7.251l-10.103 17.499-25.98-15 10.105-17.504c3.179-5.506 2.541-12.418-1.591-17.25-5.965-6.973-10.559-14.942-13.654-23.686-2.12-5.99-7.785-9.994-14.14-9.994h-20.229z"/></g></svg>